<?xml version="1.0" standalone="no"?><!DOCTYPE svg PUBLIC "-//W3C//DTD SVG 1.1//EN" "http://www.w3.org/Graphics/SVG/1.1/DTD/svg11.dtd"><svg t="1557058875702" class="icon" style="" viewBox="0 0 1024 1024" version="1.1" xmlns="http://www.w3.org/2000/svg" p-id="1011" xmlns:xlink="http://www.w3.org/1999/xlink" width="200" height="200"><defs><style type="text/css"></style></defs><path d="M520.864083 583.44186m-281.004651 0a281.004651 281.004651 0 1 0 562.009302 0 281.004651 281.004651 0 1 0-562.009302 0Z" fill="#F4E347" p-id="1012"></path><path d="M522.18708 781.494574a33.207235 33.207235 0 0 1-33.339535-33.339535V415.288889a33.339535 33.339535 0 1 1 66.149871 0v332.86615a33.207235 33.207235 0 0 1-33.339535 33.339535" p-id="1013"></path><path d="M688.620155 615.061499H355.754005a33.339535 33.339535 0 0 1 0-66.149871h332.86615a33.339535 33.339535 0 1 1 0 66.149871" p-id="1014"></path><path d="M521.657881 981.134884a399.41292 399.41292 0 1 1 308.126098-654.089923 33.339535 33.339535 0 1 1-51.332299 42.468217 332.99845 332.99845 0 1 0 74.352454 250.443411 332.73385 332.73385 0 0 0-12.436175-136.004134 33.339535 33.339535 0 0 1 63.636175-19.580362 395.047028 395.047028 0 0 1 10.980879 44.717313 405.631008 405.631008 0 0 1 4.101292 118.143669 398.089922 398.089922 0 0 1-329.426357 348.34522 422.433075 422.433075 0 0 1-67.869767 5.556589" p-id="1015"></path></svg>