<?xml version="1.0" standalone="no"?><!DOCTYPE svg PUBLIC "-//W3C//DTD SVG 1.1//EN" "http://www.w3.org/Graphics/SVG/1.1/DTD/svg11.dtd"><svg t="1557147780168" class="icon" style="" viewBox="0 0 1024 1024" version="1.1" xmlns="http://www.w3.org/2000/svg" p-id="919" xmlns:xlink="http://www.w3.org/1999/xlink" width="200" height="200"><defs><style type="text/css"></style></defs><path d="M806.4 233.984a60.672 60.672 0 0 1 60.416 60.416v435.712a60.672 60.672 0 0 1-60.416 60.672H211.712a60.672 60.672 0 0 1-60.416-60.416V294.4a60.672 60.672 0 0 1 60.416-60.416H806.4m0-102.4H211.712A162.816 162.816 0 0 0 48.896 294.4v435.712a162.816 162.816 0 0 0 162.816 162.816H806.4a162.816 162.816 0 0 0 162.816-162.816V294.4A162.816 162.816 0 0 0 806.4 131.584z" fill="#505050" p-id="920" data-spm-anchor-id="a313x.7781069.0.i0" class="selected"></path><path d="M904.704 335.104H107.776v102.4h796.928v-102.4z" fill="#505050" p-id="921" data-spm-anchor-id="a313x.7781069.0.i3" class="selected"></path><path d="M232.96 640.768a51.456 51.456 0 0 1 51.2-51.2h128a51.456 51.456 0 0 1 51.2 51.2 51.456 51.456 0 0 1-51.2 51.2h-128a51.456 51.456 0 0 1-51.2-51.2z" fill="#FCC53A" p-id="922"></path></svg>