<?xml version="1.0" standalone="no"?><!DOCTYPE svg PUBLIC "-//W3C//DTD SVG 1.1//EN" "http://www.w3.org/Graphics/SVG/1.1/DTD/svg11.dtd"><svg t="1557124619091" class="icon" style="" viewBox="0 0 1024 1024" version="1.1" xmlns="http://www.w3.org/2000/svg" p-id="2095" xmlns:xlink="http://www.w3.org/1999/xlink" width="200" height="200"><defs><style type="text/css"></style></defs><path d="M512 180.224a331.776 331.776 0 1 1-234.752 97.28 329.728 329.728 0 0 1 234.752-97.28m0-102.4A434.176 434.176 0 1 0 946.176 512 434.176 434.176 0 0 0 512 77.824z" fill="#505050" p-id="2096" data-spm-anchor-id="a313x.7781069.0.i0" class=""></path><path d="M599.04 359.68a50.944 50.944 0 0 0-25.6 6.912l-174.336 100.608a51.2 51.2 0 0 0-18.688 69.888 51.2 51.2 0 0 0 69.888 18.688l174.336-100.608a51.2 51.2 0 0 0-25.6-95.488z" fill="#FCC53A" p-id="2097"></path><path d="M424.96 461.312a51.2 51.2 0 0 0-25.6 95.488l174.336 100.608a51.2 51.2 0 0 0 51.2-88.576L450.56 468.224a50.944 50.944 0 0 0-25.6-6.912z" fill="#FCC53A" p-id="2098"></path></svg>