<?xml version="1.0" standalone="no"?><!DOCTYPE svg PUBLIC "-//W3C//DTD SVG 1.1//EN" "http://www.w3.org/Graphics/SVG/1.1/DTD/svg11.dtd"><svg t="1557017981145" class="icon" style="" viewBox="0 0 1024 1024" version="1.1" xmlns="http://www.w3.org/2000/svg" p-id="611" xmlns:xlink="http://www.w3.org/1999/xlink" width="200" height="200"><defs><style type="text/css"></style></defs><path d="M512 182.784a331.776 331.776 0 1 1-234.752 97.28 329.728 329.728 0 0 1 234.752-97.28m0-102.4A434.176 434.176 0 1 0 946.176 514.56 434.176 434.176 0 0 0 512 80.384z" fill="#FFFBF3" p-id="612" data-spm-anchor-id="a313x.7781069.0.i3" class=""></path><path d="M302.592 440.32a71.68 71.68 0 1 0 71.68 71.68 71.68 71.68 0 0 0-71.68-71.68zM511.488 440.32a71.68 71.68 0 1 0 71.68 71.68 71.68 71.68 0 0 0-71.68-71.68zM721.152 440.32a71.68 71.68 0 1 0 71.68 71.68 71.68 71.68 0 0 0-71.68-71.68z" fill="#FFFBF3" p-id="613" data-spm-anchor-id="a313x.7781069.0.i0" class=""></path></svg>